<?xml version="1.0" encoding="utf-8"?>
<!-- Generator: Adobe Adobe Illustrator 24.2.0, SVG Export Plug-In . SVG Version: 6.00 Build 0)  -->
<svg version="1.1" id="Layer_1" xmlns="http://www.w3.org/2000/svg" xmlns:xlink="http://www.w3.org/1999/xlink" x="0px" y="0px"
	 width="520px" height="519.98px" viewBox="0 0 520 519.98" style="enable-background:new 0 0 520 519.98;" xml:space="preserve">
<style type="text/css">
	.st0{fill:#34872F;}
	.st1{fill:#4DC947;}
	.st2{fill:#57E34F;}
</style>
<path class="st0" d="M40.83,298.56v-76.01c0-100.51,81.48-182,182-182h76.01c100.51,0,182,81.48,182,182v76.01
	c0,100.51-81.48,182-182,182h-76.01C122.31,480.56,40.83,399.07,40.83,298.56z"/>
<path class="st1" d="M56.83,276.56c0-81.19,193.67-207,268.5-207s126.5,121.81,126.5,203c0,48.09-43.34,100.27-78.67,134.81
	c-25.79,25.21-63.88,33.11-97.52,20.13C196.68,397.02,56.83,334.82,56.83,276.56z"/>
<path class="st2" d="M174.79,165.33c21.9-26.68,108.96-41.7,145.5-29.5c39.51,13.19,87.5,154.65,87.5,189.16
	s-116.18,48.84-153.46,48.84c-21.04,0-108.31-18.36-124.59-67.03C117.19,269.25,156.64,187.45,174.79,165.33z"/>
</svg>
