<svg width="688" height="554" viewBox="0 0 688 554" fill="none" xmlns="http://www.w3.org/2000/svg">
<path d="M130.61 154.664C136.61 136.264 133.11 80.9975 130.61 59.1641C144.277 35.3308 179.61 -8.23585 211.61 8.16415C231.61 19.3641 234.943 27.4975 234.11 30.1641C251.61 16.4975 291.31 -8.13587 310.11 2.66413C311.285 3.16415 314.93 7.76417 320.11 22.1641C414.11 295.164 598.11 291.164 640.61 316.164C657.61 326.164 654.11 391.725 640.61 396.664C606.443 409.164 515.71 422.464 426.11 375.664C336.51 328.864 160.443 323.164 83.61 326.164C60.41 271.364 105.277 188.997 130.61 154.664Z" fill="url(#paint0_linear_203_80)"/>
<path fill-rule="evenodd" clip-rule="evenodd" d="M425.055 375.664C335.455 328.864 160.443 323.164 83.61 326.164C83.7766 350.997 85.5553 404.664 95.5553 420.664C99.1085 426.349 112.236 430.393 129.555 433.222C147.83 436.207 170.772 437.839 192.055 438.618C207.365 439.179 221.817 439.299 233.055 439.164C244.293 439.029 233.055 375.664 233.055 375.664C259.388 367.331 334.654 366.664 425.055 430.664C435.876 438.325 454.052 444.034 475.555 447.811C492.629 450.809 511.8 452.588 531.055 453.159C559.492 454.002 588.112 452.209 610.424 447.811C625.19 444.9 637.194 440.848 644.555 435.664L640.61 396.664C606.443 409.164 514.655 422.464 425.055 375.664Z" fill="url(#paint1_linear_203_80)"/>
<path d="M644.555 538.164C721.755 502.964 676.722 455.164 644.555 435.664C637.194 440.848 625.19 444.9 610.424 447.811C608.952 451.158 612.442 455.897 616.252 461.069C626.99 475.647 640.262 493.664 552.055 493.664C518.318 493.664 524.222 469.161 531.055 453.159C511.8 452.588 492.629 450.809 475.555 447.811C475.615 449.787 476.712 452.543 477.982 455.734C483.748 470.222 493.077 493.664 425.055 493.664C408.701 493.664 379.384 492.282 346.055 489.944C339.055 505.882 321.555 539.432 307.555 546.129C456.129 555.919 600.168 558.403 644.555 538.164Z" fill="url(#paint2_linear_203_80)"/>
<path d="M9.05529 473.164C-7.34471 489.964 2.22195 510.498 9.05529 518.664C61.2048 524.808 130.117 531.994 203.555 538.238C234.755 529.628 260.222 498.062 269.055 483.355C239.579 480.338 212.029 476.851 192.055 473.164V438.618C170.772 437.839 147.83 436.207 129.555 433.222V473.164C96.2217 466.164 25.4553 456.364 9.05529 473.164Z" fill="url(#paint3_linear_203_80)"/>
<path d="M307.555 546.129C321.555 539.432 339.055 505.882 346.055 489.944C340.81 489.576 309.465 487.065 304.055 486.652C295.655 510.469 264.555 533.362 250.055 541.832C260.556 542.59 297.067 545.438 307.555 546.129Z" fill="url(#paint4_linear_203_80)"/>
<path d="M269.055 483.355C260.222 498.062 234.755 529.628 203.555 538.238C216.766 539.361 230.123 540.454 243.555 541.505C254.352 542.349 239.198 541.048 250.055 541.832C264.555 533.362 295.655 510.469 304.055 486.652C292.319 485.635 280.541 484.531 269.055 483.355Z" fill="url(#paint5_linear_203_80)"/>
<circle cx="295" cy="83" r="9" fill="black"/>
<circle cx="349" cy="184" r="9" fill="black"/>
<circle cx="331" cy="155" r="9" fill="black"/>
<circle cx="313" cy="123" r="9" fill="black"/>
<path d="M351.5 97.5C347.5 104.7 326.333 113.333 317 116L318.5 129L360 114L351.5 97.5Z" fill="black"/>
<path d="M369.5 130.5C365.5 137.7 345.333 145.333 336 148L337.5 161L378.5 145L369.5 130.5Z" fill="black"/>
<path d="M389.5 161C385.5 168.2 362.333 174.333 353 177L354.5 190L399 173.5L389.5 161Z" fill="black"/>
<path fill-rule="evenodd" clip-rule="evenodd" d="M337.5 10C319.9 15.6 322.5 56.347 336 65C337.5 72.847 341.5 80.0488 350.5 84.0001C371 93.0001 398.5 94 392.5 74C385.988 52.2928 364 48 344 60.0001C344 60.0001 351.985 54.5 355 48C364.787 26.9014 354.778 4.50244 337.5 10ZM354.038 32.0001C354.038 40.5605 345.68 60.0001 338.5 60.0001C331.32 60.0001 331 42.0604 331 33.5C331 24.9396 336.82 17 344 17C351.18 17 354.038 23.4397 354.038 32.0001ZM360 84.0001C367 86.0001 389.801 89.2211 389 78C388 64 376.774 58.5 370.5 57.5C362.835 56.2782 342 59.5 342 69C342 73.5 345.5 79.0001 360 84.0001Z" fill="black"/>
<path d="M334 59C330 66.2 306.333 74.3333 297 77L298.5 90L338 68.5L334 59Z" fill="black"/>
<defs>
<linearGradient id="paint0_linear_203_80" x1="-396" y1="261" x2="625.5" y2="263" gradientUnits="userSpaceOnUse">
<stop stop-color="#AAAAAA"/>
<stop stop-color="#C4C4C4"/>
<stop offset="1" stop-color="white"/>
</linearGradient>
<linearGradient id="paint1_linear_203_80" x1="-1054.94" y1="2309.16" x2="-1038.44" y2="3080.66" gradientUnits="userSpaceOnUse">
<stop offset="0.384447"/>
<stop offset="1" stop-opacity="0"/>
</linearGradient>
<linearGradient id="paint2_linear_203_80" x1="530" y1="844" x2="500" y2="-138" gradientUnits="userSpaceOnUse">
<stop offset="0.0727015" stop-color="white"/>
<stop offset="0.305495" stop-color="white"/>
<stop offset="1" stop-opacity="0"/>
</linearGradient>
<linearGradient id="paint3_linear_203_80" x1="115.5" y1="663.5" x2="207.68" y2="-30.4788" gradientUnits="userSpaceOnUse">
<stop offset="0.25488" stop-color="white"/>
<stop offset="0.534083" stop-color="#7B7B7B" stop-opacity="0.481721"/>
<stop offset="1" stop-opacity="0"/>
</linearGradient>
<linearGradient id="paint4_linear_203_80" x1="-1054.94" y1="2309.16" x2="-1038.44" y2="3080.66" gradientUnits="userSpaceOnUse">
<stop offset="0.384447" stop-color="#FDFDFD"/>
<stop offset="1" stop-opacity="0"/>
</linearGradient>
<linearGradient id="paint5_linear_203_80" x1="-1054.94" y1="2309.16" x2="-1038.44" y2="3080.66" gradientUnits="userSpaceOnUse">
<stop offset="0.203125" stop-color="#BFBFBF"/>
<stop offset="1" stop-opacity="0"/>
</linearGradient>
</defs>
</svg>
