<?xml version="1.0" encoding="utf-8"?>
<svg x="227.61pt" y="207.471pt" width="944.908pt" height="989.759pt" viewBox="227.61 207.471 944.908 989.759" xmlns="http://www.w3.org/2000/svg" xmlns:xlink="http://www.w3.org/1999/xlink">
  <g id="1">
    <title>Background</title>
    <linearGradient x1="213.23" y1="367.679" x2="957.829" y2="977.036" gradientUnits="userSpaceOnUse" id="4">
      <stop style="stop-color:#59c1ff;stop-opacity:1;"/>
      <stop offset="1" style="stop-color:#1170e2;stop-opacity:1;"/>
    </linearGradient>
    <defs>
      <title>Path</title>
      <g id="2">
        <defs>
          <path id="3" d="M339.764,433.957 C317.759,489.453,323.119,532.358,306.905,579.776 C289.829,629.711,260.102,673.478,242.831,723.035 C199.914,846.186,252.942,983.811,337.048,1076.64 C438.889,1189.04,535.428,1086.83,639.875,1127.79 C751.92,1171.73,894.031,1230.68,1013.1,1173.72 C1059.45,1151.55,1095.71,1112.21,1120.31,1067.64 C1221.08,885.06,1073.23,839.471,1074.44,687.637 C1075.27,582.381,1196.39,496.85,1168.29,384.962 C1125.1,212.998,957.257,303.723,842.395,290.71 C775.297,283.109,717.365,149.787,601.128,236.888 C542.324,280.952,417.262,238.513,339.764,433.957 z"/>
        </defs>
        <use xlink:href="#3" style="fill:url(#4);fill-opacity:1;fill-rule:nonzero;opacity:1;stroke:none;"/>
        <use xlink:href="#3" style="fill:none;opacity:1;stroke:#000000;stroke-linecap:butt;stroke-linejoin:miter;stroke-miterlimit:10;stroke-opacity:1;stroke-width:0;"/>
      </g>
    </defs>
    <use xlink:href="#2"/>
  </g>
  <g id="5">
    <title>Hands</title>
    <linearGradient x1="535.816" y1="843.632" x2="535.816" y2="920.213" gradientUnits="userSpaceOnUse" id="8">
      <stop style="stop-color:#b1a08f;stop-opacity:1;"/>
      <stop offset="0.997768" style="stop-color:#f8e0c8;stop-opacity:1;"/>
    </linearGradient>
    <defs>
      <title>Path</title>
      <g id="6">
        <defs>
          <path id="7" d="M586.696,883.733 C586.696,883.733,552.921,931.586,514.167,924.77 C493.882,921.202,484.325,906.217,484.967,891.85 C485.551,878.771,494.591,866.203,511.686,863.232 C511.686,863.232,501.895,864.287,498.624,852.669 C495.042,839.944,500.688,833,506.595,843.604 C513.168,855.404,545.752,844.002,545.752,844.002"/>
        </defs>
        <use xlink:href="#7" style="fill:url(#8);fill-opacity:1;fill-rule:nonzero;opacity:1;stroke:none;"/>
        <use xlink:href="#7" style="fill:none;opacity:1;stroke:#000000;stroke-linecap:butt;stroke-linejoin:miter;stroke-miterlimit:10;stroke-opacity:1;stroke-width:0;"/>
      </g>
    </defs>
    <use xlink:href="#6"/>
    <linearGradient x1="1040.29" y1="870.227" x2="1027.82" y2="945.786" gradientUnits="userSpaceOnUse" id="11">
      <stop style="stop-color:#b1a08f;stop-opacity:1;"/>
      <stop offset="0.997768" style="stop-color:#f8dfc8;stop-opacity:1;"/>
    </linearGradient>
    <defs>
      <title>Path</title>
      <g id="9">
        <defs>
          <path id="10" d="M983.557,901.507 C983.557,901.507,1009.09,954.222,1048.44,953.807 C1069.03,953.589,1080.9,940.36,1082.61,926.081 C1084.16,913.081,1077.29,899.209,1060.9,893.494 C1060.9,893.494,1070.39,896.13,1075.51,885.199 C1081.12,873.227,1076.68,865.456,1069.12,874.957 C1060.72,885.529,1030.42,868.974,1030.42,868.974"/>
        </defs>
        <use xlink:href="#10" style="fill:url(#11);fill-opacity:1;fill-rule:nonzero;opacity:1;stroke:none;"/>
        <use xlink:href="#10" style="fill:none;opacity:1;stroke:#000000;stroke-linecap:butt;stroke-linejoin:miter;stroke-miterlimit:10;stroke-opacity:1;stroke-width:0;"/>
      </g>
    </defs>
    <use xlink:href="#9"/>
  </g>
  <g id="12">
    <title>Body</title>
    <linearGradient x1="790.31" y1="609.263" x2="790.31" y2="1077.94" gradientUnits="userSpaceOnUse" id="15">
      <stop style="stop-color:#494949;stop-opacity:1;"/>
      <stop offset="1" style="stop-color:#000000;stop-opacity:1;"/>
    </linearGradient>
    <defs>
      <title>Path</title>
      <g id="13">
        <defs>
          <path id="14" d="M722.34,635.534 C722.34,635.534,740.478,671.966,565.947,782.285 C489.091,830.866,595.498,887.824,611.174,901.003 C626.85,914.181,670.22,876.841,685.142,860.387 C700.064,843.934,620.208,989.623,589.77,1031.95 C559.332,1074.28,778.78,1101.55,845.828,1049.19 C912.876,996.828,928.491,1005.43,946.968,1009.37 C965.445,1013.32,901.056,878.864,901.056,878.864 C901.056,878.864,938.151,942.381,980.905,906.972 C1023.66,871.562,1051.75,867.208,1039.3,839.93 C1026.86,812.653,797.742,673.114,807.152,627.617 C816.562,582.12,722.34,635.534,722.34,635.534 z"/>
        </defs>
        <use xlink:href="#14" style="fill:url(#15);fill-opacity:1;fill-rule:nonzero;opacity:1;stroke:none;"/>
        <use xlink:href="#14" style="fill:none;opacity:1;stroke:#000000;stroke-linecap:butt;stroke-linejoin:miter;stroke-miterlimit:10;stroke-opacity:1;stroke-width:0;"/>
      </g>
    </defs>
    <use xlink:href="#13"/>
    <linearGradient x1="764.693" y1="622.403" x2="764.693" y2="682.458" gradientUnits="userSpaceOnUse" id="18">
      <stop style="stop-color:#b1a08f;stop-opacity:1;"/>
      <stop offset="0.997768" style="stop-color:#f8e0c8;stop-opacity:1;"/>
    </linearGradient>
    <defs>
      <title>Path</title>
      <g id="16">
        <defs>
          <path id="17" d="M710.868,665.822 C710.868,665.822,728.024,690.524,757.725,686 C787.426,681.475,813.551,676.267,818.519,655.101 C818.519,655.101,810.035,647.42,807.152,627.617 C803.77,604.388,722.587,631.951,722.587,631.951 C722.587,631.951,720.234,654.252,710.868,665.822 z"/>
        </defs>
        <use xlink:href="#17" style="fill:url(#18);fill-opacity:1;fill-rule:nonzero;opacity:1;stroke:none;"/>
        <use xlink:href="#17" style="fill:none;opacity:1;stroke:#000000;stroke-linecap:butt;stroke-linejoin:miter;stroke-miterlimit:10;stroke-opacity:1;stroke-width:0;"/>
      </g>
    </defs>
    <use xlink:href="#16"/>
  </g>
  <g id="19">
    <title>Head</title>
    <g id="20">
      <title>Layer 3</title>
    </g>
    <linearGradient x1="860.422" y1="434.979" x2="649.427" y2="436.815" gradientUnits="userSpaceOnUse" id="23">
      <stop style="stop-color:#494949;stop-opacity:1;"/>
      <stop offset="1" style="stop-color:#000000;stop-opacity:1;"/>
    </linearGradient>
    <defs>
      <title>Shape 145</title>
      <g id="21">
        <defs>
          <path id="22" d="M652.733,470.336 C651.001,465.889,649.915,459.777,649.521,454.912 C647.049,424.403,687.025,396.128,717.329,387.923 C733.746,383.479,773.163,376.971,804.368,397.217 C822.689,409.105,846.158,414.411,856.813,435.001 C865.276,451.353,856.838,471.734,852.546,488.513 C852.546,488.513,652.733,470.336,652.733,470.336 z"/>
        </defs>
        <use xlink:href="#22" style="fill:url(#23);fill-opacity:1;fill-rule:evenodd;opacity:1;stroke:none;"/>
        <use xlink:href="#22" style="fill:none;opacity:1;stroke:#000000;stroke-linecap:round;stroke-linejoin:miter;stroke-miterlimit:10;stroke-opacity:1;stroke-width:0;"/>
      </g>
    </defs>
    <use xlink:href="#21"/>
    <linearGradient x1="680.678" y1="513.545" x2="1185.76" y2="644.066" gradientUnits="userSpaceOnUse" id="26">
      <stop style="stop-color:#f8e0c8;stop-opacity:1;"/>
      <stop offset="1" style="stop-color:#ffffff;stop-opacity:1;"/>
    </linearGradient>
    <defs>
      <title>Shape 144</title>
      <g id="24">
        <defs>
          <path id="25" d="M652.843,470.623 C634.967,529.659,652.789,631.682,738.437,638 C843.383,645.742,884.509,564.33,852.925,486.986 C852.925,486.986,833.001,487.857,807.493,481.262 C790.321,476.823,743.888,453.183,723.117,451.484 C674.811,447.534,652.843,470.623,652.843,470.623 z"/>
        </defs>
        <use xlink:href="#25" style="fill:url(#26);fill-opacity:1;fill-rule:evenodd;opacity:1;stroke:none;"/>
        <use xlink:href="#25" style="fill:none;opacity:1;stroke:#000000;stroke-linecap:round;stroke-linejoin:miter;stroke-miterlimit:10;stroke-opacity:1;stroke-width:0;"/>
      </g>
    </defs>
    <use xlink:href="#24"/>
    <g id="27">
      <title>Layer 3</title>
      <defs>
        <title>Path</title>
        <g id="28">
          <defs>
            <path id="29" d="M753.24,519.797 C744.773,546.666,718.834,551.836,763.934,567.852"/>
          </defs>
          <use xlink:href="#29" style="fill:none;opacity:1;stroke:#000000;stroke-linecap:round;stroke-linejoin:miter;stroke-miterlimit:10;stroke-opacity:1;stroke-width:1;"/>
        </g>
      </defs>
      <use xlink:href="#28"/>
    </g>
    <g id="30">
      <title>Layer 4</title>
      <defs>
        <title>Path</title>
        <g id="31">
          <defs>
            <path id="32" d="M776.608,595.379 C795.576,600.31,808.596,582.255,809.807,568.031"/>
          </defs>
          <use xlink:href="#32" style="fill:none;opacity:1;stroke:#000000;stroke-linecap:round;stroke-linejoin:miter;stroke-miterlimit:10;stroke-opacity:1;stroke-width:1;"/>
        </g>
      </defs>
      <use xlink:href="#31"/>
    </g>
  </g>
</svg>
