<?xml version="1.0" encoding="utf-8"?>
<!-- Generator: Adobe Illustrator 26.2.1, SVG Export Plug-In . SVG Version: 6.00 Build 0)  -->
<svg version="1.1" id="Layer_1" xmlns="http://www.w3.org/2000/svg" xmlns:xlink="http://www.w3.org/1999/xlink" x="0px" y="0px"
	 viewBox="0 0 944.9 989.8" style="enable-background:new 0 0 944.9 989.8;" xml:space="preserve">
<style type="text/css">
	.st0{fill:url(#_x33__00000037660735744345193810000008923829065525079967_);}
	.st1{fill:none;}
	.st2{fill-rule:evenodd;clip-rule:evenodd;fill:url(#_x37__00000055706790967598645400000008145745984214094776_);}
	.st3{fill-rule:evenodd;clip-rule:evenodd;fill:url(#_x31_0_00000155148466100925994290000009779500633728418989_);}
	.st4{fill:none;stroke:#000000;stroke-linecap:round;stroke-miterlimit:10;}
</style>
<g id="_x31_">
	<g>
		<g id="_x32_">
			<g>
				
					<linearGradient id="_x33__00000091706799285397643030000006810778555458053529_" gradientUnits="userSpaceOnUse" x1="33.7023" y1="901.6039" x2="778.3013" y2="292.2468" gradientTransform="matrix(1 0 0 -1 0 1003.0582)">
					<stop  offset="0" style="stop-color:#59C1FF"/>
					<stop  offset="1" style="stop-color:#1170E2"/>
				</linearGradient>
				<path id="_x33_" style="fill:url(#_x33__00000091706799285397643030000006810778555458053529_);" d="M112.2,226.5
					c-22,55.5-16.6,98.4-32.9,145.8C62.2,422.2,32.5,466,15.2,515.6c-42.9,123.2,10.1,260.8,94.2,353.6
					c101.8,112.4,198.4,10.2,302.8,51.2c112,43.9,254.2,102.9,373.2,45.9c46.3-22.2,82.6-61.5,107.2-106.1
					c100.8-182.6-47.1-228.2-45.9-380c0.8-105.3,122-190.8,93.9-302.7c-43.2-172-211-81.2-325.9-94.3
					c-67.1-7.6-125-140.9-241.3-53.8C314.7,73.5,189.7,31,112.2,226.5z"/>
			</g>
			<g>
				<path id="_x33__00000129885712669155348130000013313072985851664547_" class="st1" d="M112.2,226.5
					c-22,55.5-16.6,98.4-32.9,145.8C62.2,422.2,32.5,466,15.2,515.6c-42.9,123.2,10.1,260.8,94.2,353.6
					c101.8,112.4,198.4,10.2,302.8,51.2c112,43.9,254.2,102.9,373.2,45.9c46.3-22.2,82.6-61.5,107.2-106.1
					c100.8-182.6-47.1-228.2-45.9-380c0.8-105.3,122-190.8,93.9-302.7c-43.2-172-211-81.2-325.9-94.3
					c-67.1-7.6-125-140.9-241.3-53.8C314.7,73.5,189.7,31,112.2,226.5z"/>
			</g>
		</g>
	</g>
</g>
<g id="_x35_">
	<g>
		<g id="_x36_">
			<g>
				
					<linearGradient id="_x37__00000116929664132986540540000012672818100415003565_" gradientUnits="userSpaceOnUse" x1="691.1319" y1="738.173" x2="261.1516" y2="733.8394" gradientTransform="matrix(1 0 0 -1 0 1003.0582)">
					<stop  offset="0" style="stop-color:#494949"/>
					<stop  offset="1" style="stop-color:#000000"/>
				</linearGradient>
				
					<path id="_x37_" style="fill-rule:evenodd;clip-rule:evenodd;fill:url(#_x37__00000116929664132986540540000012672818100415003565_);" d="
					M268.3,347.3c-3.5-10.5-5.7-24.9-6.5-36.4c-5-72,76.4-138.7,138.2-158.1c33.5-10.5,113.8-25.8,177.4,21.9
					c37.3,28,85.2,40.6,106.9,89.1c17.2,38.6,0.1,86.7-8.7,126.3L268.3,347.3z"/>
			</g>
			<g>
				<path id="_x37__00000025438794785453969280000008614851071339132036_" class="st1" d="M268.3,347.3c-3.5-10.5-5.7-24.9-6.5-36.4
					c-5-72,76.4-138.7,138.2-158.1c33.5-10.5,113.8-25.8,177.4,21.9c37.3,28,85.2,40.6,106.9,89.1c17.2,38.6,0.1,86.7-8.7,126.3
					L268.3,347.3z"/>
			</g>
		</g>
	</g>
	<g>
		<g id="_x39_">
			<g>
				
					<linearGradient id="_x31_0_00000120552193199045912510000016782388514812302218_" gradientUnits="userSpaceOnUse" x1="313.073" y1="513.1815" x2="1342.2219" y2="205.2366" gradientTransform="matrix(1 0 0 -1 0 1003.0582)">
					<stop  offset="0" style="stop-color:#F8E0C8"/>
					<stop  offset="1" style="stop-color:#FFFFFF"/>
				</linearGradient>
				
					<path id="_x31_0" style="fill-rule:evenodd;clip-rule:evenodd;fill:url(#_x31_0_00000120552193199045912510000016782388514812302218_);" d="
					M268.5,348c-36.4,139.3-0.1,380,174.4,394.9c213.8,18.3,297.6-173.8,233.3-356.3c0,0-40.6,2.1-92.6-13.5
					c-35-10.5-129.6-66.2-171.9-70.3C313.3,293.5,268.5,348,268.5,348z"/>
			</g>
			<g>
				<path id="_x31_0_00000138534018243912759160000014034426877102978748_" class="st1" d="M268.5,348
					c-36.4,139.3-0.1,380,174.4,394.9c213.8,18.3,297.6-173.8,233.3-356.3c0,0-40.6,2.1-92.6-13.5c-35-10.5-129.6-66.2-171.9-70.3
					C313.3,293.5,268.5,348,268.5,348z"/>
			</g>
		</g>
	</g>
</g>
<g id="_x31_2">
	<g>
		<g id="_x31_3">
			<g>
				<path id="_x31_4" class="st4" d="M473.1,464c-17.3,63.4-70.1,75.6,21.8,113.4"/>
			</g>
		</g>
	</g>
</g>
<g id="_x31_5">
	<g>
		<g id="_x31_6">
			<g>
				<path id="_x31_7" class="st4" d="M520.7,642.4c38.6,11.6,65.2-31,67.6-64.5"/>
			</g>
		</g>
	</g>
</g>
</svg>
