<svg width="17" height="11" viewBox="0 0 17 11" fill="none" xmlns="http://www.w3.org/2000/svg">
<g clip-path="url(#clip0_201_127)">
<path d="M10.5 0.499998C10.5 0.223857 10.7234 0.00216632 10.9993 0.0142077C11.9678 0.0564832 13.7759 0.192773 14.2221 0.418653C14.768 0.695054 15.2641 1.10018 15.682 1.6109C16.0998 2.12163 16.4313 2.72794 16.6575 3.39523C16.8836 4.06253 17 4.77772 17 5.5C17 6.22227 16.8836 6.93747 16.6575 7.60476C16.4313 8.27205 16.0998 8.87836 15.682 9.38909C15.2641 9.89981 14.768 10.3049 14.2221 10.5813C13.7834 10.8034 12.0285 10.9389 11.049 10.9836C10.7456 10.9974 10.5 10.7538 10.5 10.45V10.45C10.5 10.1462 10.7461 9.89692 11.0496 9.88394C11.9495 9.84547 13.5358 9.73814 13.8776 9.56507C14.3144 9.34395 14.7113 9.01985 15.0456 8.61127C15.3799 8.20269 15.645 7.71764 15.826 7.1838C16.0069 6.64997 16.1 6.07781 16.1 5.5C16.1 4.92218 16.0069 4.35002 15.826 3.81619C15.645 3.28235 15.3799 2.7973 15.0456 2.38872C14.7113 1.98014 14.3144 1.65604 13.8776 1.43492C13.5292 1.25853 11.8881 1.08679 10.9985 1.02453C10.723 1.00525 10.5 0.77614 10.5 0.499998V0.499998Z" fill="white"/>
<rect x="4" y="5" width="9" height="1" rx="0.5" fill="white"/>
<path d="M12.5 6.7C12.5 6.86569 12.6356 7.00302 12.798 6.9701C13.0848 6.91196 13.3507 6.77066 13.5607 6.56066C13.842 6.27936 14 5.89782 14 5.5C14 5.10218 13.842 4.72064 13.5607 4.43934C13.3507 4.22934 13.0848 4.08804 12.798 4.0299C12.6356 3.99698 12.5 4.13431 12.5 4.3V4.3C12.5 4.46569 12.6379 4.59532 12.7945 4.64954C12.922 4.6937 13.0392 4.76638 13.1364 4.8636C13.3052 5.03239 13.4 5.26131 13.4 5.5C13.4 5.73869 13.3052 5.96761 13.1364 6.1364C13.0392 6.23362 12.922 6.3063 12.7945 6.35046C12.6379 6.40468 12.5 6.53431 12.5 6.7V6.7Z" fill="white"/>
<path d="M4.5 4.3C4.5 4.13431 4.36437 3.99698 4.20199 4.0299C3.91519 4.08804 3.64934 4.22934 3.43934 4.43934C3.15804 4.72064 3 5.10218 3 5.5C3 5.89782 3.15804 6.27936 3.43934 6.56066C3.64934 6.77066 3.91519 6.91196 4.20199 6.9701C4.36437 7.00302 4.5 6.86569 4.5 6.7V6.7C4.5 6.53431 4.36208 6.40468 4.20552 6.35046C4.07801 6.3063 3.96083 6.23362 3.8636 6.1364C3.69482 5.96761 3.6 5.73869 3.6 5.5C3.6 5.26131 3.69482 5.03239 3.8636 4.8636C3.96083 4.76638 4.07801 4.6937 4.20552 4.64954C4.36208 4.59532 4.5 4.46569 4.5 4.3V4.3Z" fill="white"/>
<path d="M6.5 10.5C6.5 10.7761 6.2766 10.9978 6.00072 10.9858C5.03215 10.9435 3.22411 10.8072 2.77794 10.5813C2.23197 10.3049 1.73589 9.89982 1.31802 9.3891C0.900154 8.87837 0.568683 8.27206 0.342535 7.60477C0.116388 6.93747 -8.68639e-06 6.22228 -8.58307e-06 5.5C-8.47974e-06 4.77773 0.116388 4.06253 0.342535 3.39524C0.568683 2.72795 0.900155 2.12164 1.31802 1.61091C1.73589 1.10019 2.23197 0.695064 2.77794 0.418663C3.21659 0.196593 4.97154 0.06111 5.951 0.0164282C6.25444 0.00258555 6.5 0.246243 6.5 0.55V0.55C6.5 0.853758 6.25389 1.10308 5.95041 1.11606C5.05045 1.15453 3.46421 1.26186 3.12235 1.43493C2.68558 1.65605 2.28872 1.98015 1.95442 2.38873C1.62013 2.79731 1.35495 3.28236 1.17403 3.8162C0.993114 4.35003 0.899997 4.92219 0.899997 5.5C0.899997 6.07782 0.993114 6.64998 1.17403 7.18381C1.35495 7.71765 1.62013 8.2027 1.95442 8.61128C2.28871 9.01986 2.68558 9.34396 3.12235 9.56508C3.47078 9.74147 5.1119 9.91321 6.00154 9.97547C6.27701 9.99475 6.5 10.2239 6.5 10.5V10.5Z" fill="white"/>
</g>
<defs>
<clipPath id="clip0_201_127">
<rect width="17" height="11" fill="white"/>
</clipPath>
</defs>
</svg>
